HIERARCHY
ROOT hip
{
	OFFSET 0.000000 0.000000 0.000000 
	CHANNELS 6 Xposition Yposition Zposition Xrotation Zrotation Yrotation
	JOINT abdomen
	{
		OFFSET 0.000000 3.402643 0.000000 
		CHANNELS 3 Xrotation Zrotation Yrotation
		JOINT chest
		{
			OFFSET 0.000000 8.438565 -0.680529 
			CHANNELS 3 Xrotation Zrotation Yrotation
			JOINT neck
			{
				OFFSET 0.000000 10.207942 -0.272212 
				CHANNELS 3 Xrotation Zrotation Yrotation
				JOINT head
				{
					OFFSET 0.000000 3.130431 0.000000 
					CHANNELS 3 Xrotation Zrotation Yrotation
					End Site
					{
						OFFSET 0.000000 3.130435 0.000000 
					}
				}
			}
			JOINT lCollar
			{
				OFFSET 3.470700 6.669187 -0.816635 
				CHANNELS 3 Yrotation Zrotation Xrotation
				JOINT lShldr
				{
					OFFSET 3.198488 0.000000 0.000000 
					CHANNELS 3 Zrotation Yrotation Xrotation
					JOINT lForeArm
					{
						OFFSET 10.139888 0.000000 0.000000 
						CHANNELS 3 Yrotation Zrotation Xrotation
						JOINT lHand
						{
							OFFSET 8.370511 0.000000 0.000000 
							CHANNELS 3 Zrotation Yrotation Xrotation
							End Site
							{
								OFFSET 4.083176 0.000000 0.000000 
							}
						}
					}
				}
			}
			JOINT rCollar
			{
				OFFSET -3.470700 6.669187 -0.816635 
				CHANNELS 3 Yrotation Zrotation Xrotation
				JOINT rShldr
				{
					OFFSET -3.198488 0.000000 0.000000 
					CHANNELS 3 Zrotation Yrotation Xrotation
					JOINT rForeArm
					{
						OFFSET -10.139888 0.000000 0.000000 
						CHANNELS 3 Yrotation Zrotation Xrotation
						JOINT rHand
						{
							OFFSET -8.370511 0.000000 0.000000 
							CHANNELS 3 Zrotation Yrotation Xrotation
							End Site
							{
								OFFSET -4.083176 0.000000 0.000000 
							}
						}
					}
				}
			}
		}
	}
	JOINT lThigh
	{
		OFFSET 5.308129 -1.633274 1.361059 
		CHANNELS 3 Xrotation Zrotation Yrotation
		JOINT lShin
		{
			OFFSET -2.041588 -20.007561 0.000000 
			CHANNELS 3 Xrotation Zrotation Yrotation
			JOINT lFoot
			{
				OFFSET 0.000000 -19.190928 -1.224953 
				CHANNELS 3 Xrotation Yrotation Zrotation
				End Site
				{
					OFFSET 0.000000 -2.449906 4.627600 
				}
			}
		}
	}
	JOINT rThigh
	{
		OFFSET -5.308129 -1.633274 1.361059 
		CHANNELS 3 Xrotation Zrotation Yrotation
		JOINT rShin
		{
			OFFSET 2.041588 -20.007561 0.000000 
			CHANNELS 3 Xrotation Zrotation Yrotation
			JOINT rFoot
			{
				OFFSET 0.000000 -19.190928 -1.224953 
				CHANNELS 3 Xrotation Yrotation Zrotation
				End Site
				{
					OFFSET 0.000000 -2.449906 4.627600 
				}
			}
		}
	}
}
MOTION
Frames: 15
Frame Time: 0.011111
8.499518 50.114864 5.616720 2.064940 -6.483196 -11.198010 8.377003 7.737408 2.002897 -5.970837 3.688751 0.348265 -9.751415 -5.388669 1.818714 19.785145 9.826366 4.966425 12.413046 -14.960623 4.251975 71.180298 -93.875748 -96.938583 -67.998375 10.191408 14.966867 6.992188 16.005859 -29.147696 -6.427974 8.898234 2.089853 67.406891 18.053722 -0.437720 47.794407 -7.437099 6.346240 -7.001954 -15.996095 50.761719 -54.111183 15.849573 -4.399960 32.696461 -5.230423 -2.423840 -11.331537 1.856237 -0.240663 22.999979 8.601489 6.673613 3.523100 5.056577 -0.023635 -14.939629 9.599489 3.194043 
8.527981 50.062004 6.111210 2.497597 -6.706117 -11.572364 8.027522 8.181211 2.588325 -5.824122 3.214090 0.527785 -9.958135 -5.467154 1.868042 20.075562 10.324800 5.153035 12.413046 -14.960623 4.251975 74.478844 -94.132904 -100.503105 -68.116211 10.188357 15.027074 6.992188 16.005859 -29.821522 -6.427974 8.898234 2.089853 67.895088 18.729971 -0.728011 47.701008 -7.410076 6.310143 -7.001954 -15.996095 50.234371 -53.979603 16.121824 -4.324756 32.480743 -5.215136 -2.410743 -9.263612 2.399257 -0.260171 23.205509 8.660248 7.007118 3.523962 5.056133 -0.013921 -14.707444 9.647117 3.154397 
8.574583 50.020721 6.667001 2.628292 -6.563777 -11.964277 7.748186 8.172183 2.968604 -5.442865 2.939560 0.662657 -10.572186 -5.386788 1.841555 20.716246 10.221455 5.032571 12.413046 -14.960623 4.251975 -101.170898 -85.540970 74.503754 -68.244675 10.184563 15.088244 6.992188 16.005859 -30.466055 -6.427974 8.898234 2.089853 68.216179 19.419575 -0.312755 47.763275 -7.428108 6.336609 -7.001954 -15.996095 50.410160 -53.306232 15.887569 -4.311514 32.637798 -5.225016 -2.419901 -7.581926 3.398279 -0.246337 23.604507 8.279258 7.206412 3.523939 5.056149 -0.013920 -14.749394 9.616678 3.151769 
8.573646 50.001328 7.279092 2.629285 -6.084052 -12.577809 7.359326 7.493752 3.189197 -4.992835 3.130855 0.770701 -10.846106 -5.436351 1.778966 20.874451 10.017325 4.833197 12.413046 -14.960623 4.251975 -93.159821 -85.154404 66.477928 -68.331886 10.185370 15.135325 6.992188 16.005859 -30.231680 -6.427974 8.898234 2.089853 68.227982 19.987108 0.883569 47.886883 -7.457417 6.373992 -7.001954 -15.996095 51.181644 -52.521839 15.388829 -4.750307 33.045406 -5.216214 -2.472510 -7.286721 4.983047 -0.070518 24.078627 7.509138 7.460636 3.523908 5.056172 -0.013918 -14.819547 9.616597 3.158650 
8.556442 49.977871 7.820183 3.123915 -6.508153 -13.225315 6.894876 8.021433 3.641646 -4.924379 3.112114 0.901637 -10.490352 -5.454452 1.640871 20.311398 9.690885 4.502314 12.413046 -14.960623 4.251975 -85.096764 -84.543198 58.786564 -68.481552 10.179926 15.198453 6.992188 16.005859 -29.811758 -6.427974 8.898234 2.089853 68.244644 20.495447 1.699922 47.835297 -7.444688 6.355884 -7.001954 -15.996095 51.591801 -52.795746 15.721094 -6.002943 33.512127 -5.206222 -2.498735 -7.048333 6.468125 0.047998 24.374750 7.695272 8.159853 3.522909 5.056868 -0.013853 -14.462994 9.664580 3.128231 
8.544559 49.966297 8.341257 3.429094 -6.744931 -13.503921 6.711416 8.320956 3.911845 -5.149335 3.058227 0.958801 -10.079805 -5.256259 1.484828 19.626783 9.097399 4.112610 12.413046 -14.960623 4.251975 -78.055443 -83.610085 51.964996 -68.769791 10.167557 15.325864 6.992188 16.005859 -29.528557 -6.427974 8.898234 2.089853 68.307510 20.853046 2.268301 47.773964 -7.433294 6.336539 -7.001954 -15.996095 51.728512 -52.602207 15.975343 -5.805819 34.029564 -5.186796 -2.543538 -5.609728 6.889148 -0.087063 24.686165 7.743917 8.421115 3.522780 5.056799 -0.023614 -14.102894 9.844113 3.160043 
8.566452 49.944092 8.930829 3.605831 -6.662583 -13.835126 6.391078 8.315632 4.054627 -5.413497 2.858866 1.007800 -9.853554 -4.820486 1.431224 19.539425 8.571768 4.011197 12.413046 -14.960623 4.251975 -70.806641 -82.265877 45.086128 -69.112305 10.153192 15.486870 6.992188 16.005859 -28.884024 -6.427974 8.898234 2.089853 68.519913 20.669258 3.417824 48.177982 -7.542221 6.490423 -7.001954 -15.996095 52.402344 -51.820732 15.906843 -5.062310 34.533405 -5.191954 -2.575864 -4.045091 7.357272 -0.221584 25.049217 7.361883 8.541481 3.523777 5.056421 -0.004140 -13.822085 10.181787 3.221709 
8.603671 49.879032 9.543858 3.768083 -6.298874 -14.282264 5.915085 8.002867 4.265955 -5.433207 2.655708 1.079734 -9.856551 -4.656322 1.462862 19.993671 8.542356 4.111772 12.413046 -14.960623 4.251975 -66.631248 -80.935402 41.134914 -69.443413 10.135983 15.637755 6.992188 16.005859 -28.522697 -6.427974 8.898234 2.089853 68.761024 20.581120 4.815789 48.675968 -7.673901 6.683206 -7.001954 -15.996095 53.310547 -50.706142 15.584191 -4.431066 34.980831 -5.176511 -2.638450 -2.966255 8.118835 -0.298865 25.369091 6.669694 8.671390 3.523697 5.056319 -0.013904 -13.382627 10.383723 3.221487 
8.636199 49.802094 10.150318 3.854350 -5.804396 -14.593077 5.478009 7.519002 4.551216 -5.120369 2.671122 1.201276 -10.100707 -5.051171 1.521769 20.429102 9.067625 4.279696 12.413046 -14.960623 4.251975 -65.768448 -79.973015 40.117924 -69.614792 10.127439 15.722411 6.992188 16.005859 -28.796133 -6.427974 8.898234 2.089853 68.858467 21.200567 5.541684 48.749107 -7.695829 6.718944 -7.001954 -15.996095 53.701176 -49.453846 15.173285 -3.377217 35.436657 -5.167476 -2.653895 -2.304163 8.688956 -0.386149 25.665165 5.907459 8.595263 3.522797 5.056788 -0.023615 -12.814158 10.441822 3.170158 
8.656218 49.710453 10.744581 4.160364 -6.234767 -14.759271 5.158863 8.294026 5.243173 -5.071715 2.448488 1.392659 -9.980985 -5.828362 1.448241 20.370811 9.924079 4.186453 12.413046 -14.960623 4.251975 -66.001633 -78.978615 40.606152 -69.508728 10.135023 15.672025 6.992188 16.005859 -28.805899 -6.427974 8.898234 2.089853 69.021950 21.667631 5.073051 48.873962 -7.729513 6.764946 -7.001954 -15.996095 53.662109 -48.784790 15.633420 -2.023324 35.951199 -5.163269 -2.693511 -0.747593 8.689885 -0.553784 26.196976 6.132455 8.839819 3.522739 5.056827 -0.023611 -12.171034 10.486898 3.091546 
8.649961 49.613808 11.346350 4.373288 -6.618910 -14.805017 4.998883 8.645529 4.900726 -5.218606 2.225656 1.292914 -10.026538 -4.966487 1.553905 20.195900 9.272398 4.385654 12.413046 -14.960623 4.251975 -62.480732 -77.432915 37.538921 -69.574005 10.133922 15.708040 6.992188 16.005859 -28.434805 -6.427974 8.898234 2.089853 69.539673 22.076422 5.649439 48.936401 -7.746249 6.793557 -7.001954 -15.996095 53.583984 -47.901150 15.924580 -0.704067 36.604683 -5.153654 -2.756438 1.297550 8.127024 -0.737114 26.748514 6.366368 8.964016 3.523647 5.056354 -0.013901 -11.595841 10.464415 3.005780 
8.651213 49.583782 12.006607 4.278900 -6.193350 -15.025845 4.755181 8.012638 4.792069 -5.042299 2.553519 1.284842 -10.192406 -4.640867 1.593125 20.076059 8.646292 4.352090 12.413046 -14.960623 4.251975 -61.190941 -75.729355 35.732407 -69.872261 10.114583 15.845276 6.992188 16.005859 -28.708244 -6.427974 8.898234 2.089853 69.502464 22.628456 6.663951 48.947144 -7.751169 6.802170 -7.001954 -15.996095 54.042969 -46.224281 15.485934 0.775204 37.317719 -5.138103 -2.810041 2.528231 7.274045 -0.776103 27.193304 5.673579 8.795766 3.522836 5.056917 -0.013848 -10.987959 10.453285 2.912875 
8.676547 49.570648 12.688445 4.207060 -5.973550 -15.186032 4.496610 7.770510 4.809894 -4.758651 2.703483 1.305565 -10.392760 -4.867951 1.646924 20.200958 8.905829 4.460284 12.413046 -14.960623 4.251975 -60.833450 -74.271721 35.194351 -69.904007 10.111989 15.859687 6.992188 16.005859 -28.835197 -6.427974 8.898234 2.089853 69.469330 23.219385 7.499434 49.030079 -7.771223 6.829699 -7.001954 -15.996095 54.365234 -44.540176 15.068019 1.829040 37.932186 -5.118602 -2.858239 3.430269 3.847600 -0.606935 27.690317 5.136518 8.674191 3.522800 5.056786 -0.023615 -10.063193 10.565692 2.806907 
8.706261 49.512779 13.346512 4.430774 -6.256930 -15.088788 4.110883 8.284422 4.810033 -4.602552 2.524137 1.314299 -10.639021 -5.172945 1.654231 20.349586 9.487823 4.505904 12.413046 -14.960623 4.251975 -60.620598 -72.940697 35.487740 -69.808762 10.119680 15.819897 6.992188 16.005859 -28.434805 -6.427974 8.898234 2.089853 69.634033 23.578510 8.213948 49.342480 -7.853327 6.950269 -7.001954 -15.996095 54.882813 -43.646736 14.870808 1.719820 38.417114 -5.109534 -2.923362 2.842178 -2.954217 -0.429789 28.210682 5.244054 8.595960 3.522814 5.056776 -0.023616 -9.012533 10.462475 2.630210 
8.734409 49.487450 14.015841 4.660097 -6.060885 -14.966107 3.555572 8.175326 4.843726 -4.358292 2.489323 1.354439 -10.893751 -5.041502 1.502927 20.240135 9.183869 4.116926 12.413046 -14.960623 4.251975 -61.012268 -71.274887 35.389984 -70.150360 10.097731 15.972172 6.992188 16.005859 -28.835197 -6.427974 8.898234 2.089853 69.874168 23.990297 8.632878 49.717632 -7.949520 7.101120 -7.001954 -15.996095 55.439453 -43.123810 14.091361 0.920854 38.794346 -5.089713 -2.951947 2.090590 -6.389997 -0.523509 28.499752 4.960706 8.247847 3.522962 5.056830 -0.013856 -7.761666 10.111955 2.357413 
